<?xml version="1.0" standalone="no"?>
<!DOCTYPE svg PUBLIC "-//W3C//DTD SVG 20010904//EN"
 "http://www.w3.org/TR/2001/REC-SVG-20010904/DTD/svg10.dtd">
<svg version="1.0" xmlns="http://www.w3.org/2000/svg"
 width="318.000000pt" height="318.000000pt" viewBox="0 0 318.000000 318.000000"
 preserveAspectRatio="xMidYMid meet">
<metadata>
Created by potrace 1.11, written by Peter Selinger 2001-2013
</metadata>
<g transform="translate(0.000000,318.000000) scale(0.100000,-0.100000)"
fill="#000000" stroke="none">
<path d="M0 2460 c0 -473 3 -720 10 -720 6 0 10 10 10 22 0 37 57 141 110 198
27 30 50 58 50 63 0 5 22 31 49 57 27 27 57 60 66 74 33 50 183 101 212 72 6
-6 28 25 39 57 3 9 9 17 13 18 56 10 73 5 96 -26 14 -17 25 -43 25 -56 1 -13
8 -51 17 -84 9 -33 17 -82 18 -110 0 -27 8 -63 16 -78 14 -25 17 -27 28 -13 7
9 15 44 18 78 4 49 0 75 -16 116 -12 29 -21 69 -21 90 0 46 33 102 59 102 30
0 51 -11 51 -26 0 -8 7 -17 15 -20 8 -4 15 -15 15 -26 0 -14 5 -18 16 -14 9 3
20 6 25 6 5 0 9 5 9 10 0 20 84 146 127 188 24 24 43 50 43 57 0 7 14 26 30
42 17 15 30 33 30 39 0 6 9 19 19 28 18 17 20 17 24 -1 5 -15 5 -15 4 2 -1 11
9 36 23 55 14 19 26 38 26 43 1 4 2 10 3 15 1 4 6 0 11 -8 8 -12 10 -11 10 6
0 12 6 27 14 33 8 7 17 24 21 38 7 28 53 78 63 69 3 -4 3 -6 -1 -6 -8 0 14
-63 24 -70 12 -8 -8 -83 -25 -96 -9 -6 -16 -16 -16 -21 0 -6 -10 -13 -22 -16
-12 -4 -19 -9 -15 -13 10 -11 -52 -46 -66 -37 -7 4 -6 0 2 -10 7 -9 19 -17 26
-17 19 0 7 -40 -20 -70 -13 -14 -26 -40 -30 -57 -3 -18 -12 -36 -20 -40 -15
-9 -55 -82 -55 -100 0 -7 -5 -13 -10 -13 -14 0 -125 -111 -133 -132 -4 -12 4
-27 26 -48 46 -43 89 -41 165 10 33 22 66 40 75 40 8 0 37 18 63 40 27 22 63
47 80 55 17 8 58 34 90 58 102 74 164 108 193 105 73 -8 2 -162 -94 -202 -17
-8 -62 -44 -100 -80 -37 -37 -86 -76 -109 -88 -22 -11 -43 -23 -46 -27 -10
-12 -65 -47 -100 -62 -105 -48 -139 -68 -180 -108 -25 -24 -56 -47 -70 -52
-23 -9 -50 -48 -50 -75 0 -15 -24 -35 -47 -38 -28 -5 -72 14 -84 35 -14 28
-29 23 -29 -10 0 -36 -18 -51 -66 -54 l-39 -2 -3 46 c-2 28 5 66 17 98 l19 51
-25 0 c-14 0 -43 5 -64 11 -32 10 -37 15 -29 29 26 49 -40 214 -73 181 -6 -6
-7 -11 -3 -11 5 0 3 -7 -4 -15 -7 -8 -25 -15 -41 -15 -43 0 -69 -31 -69 -84 0
-26 -5 -46 -12 -48 -10 -4 -10 -16 1 -59 15 -59 28 -82 42 -73 5 3 12 -2 15
-10 3 -9 15 -16 25 -16 23 0 25 -13 4 -30 -18 -15 -45 -6 -45 15 0 8 -5 15
-11 15 -7 0 -9 -9 -5 -22 3 -13 6 -31 6 -40 0 -11 8 -18 19 -18 10 0 36 -18
57 -40 22 -22 46 -40 55 -40 9 0 22 -7 29 -15 7 -8 20 -15 29 -15 25 -1 68
-42 75 -74 4 -16 20 -40 37 -55 16 -14 29 -33 29 -41 0 -30 -123 -56 -132 -29
-3 9 -11 8 -28 -2 -33 -18 -43 -19 -130 -26 -41 -3 -78 -10 -82 -17 -6 -8 -8
-8 -8 2 0 6 -7 12 -15 12 -8 0 -15 4 -15 9 0 17 -66 35 -132 36 -48 0 -68 -4
-68 -12 0 -7 -7 -13 -16 -13 -10 0 -14 -6 -11 -14 3 -7 -1 -23 -9 -35 -8 -12
-13 -25 -10 -29 3 -5 -16 -14 -42 -21 -25 -6 -52 -17 -59 -23 -10 -8 -13 -134
-13 -614 l0 -604 616 0 c601 0 616 0 641 20 16 12 41 20 64 20 21 0 39 6 42
13 3 7 9 1 15 -14 14 -34 28 -39 122 -39 91 0 94 3 79 82 -24 123 -24 133 9
157 31 21 107 42 223 61 37 5 100 25 140 43 88 40 261 84 391 100 92 12 93 12
98 42 3 17 11 30 18 29 43 -4 44 -4 40 -29 -3 -16 -1 -25 7 -25 7 0 27 -13 45
-30 18 -16 40 -30 50 -30 10 0 45 -18 78 -40 33 -22 64 -40 70 -40 6 0 36 -25
69 -55 32 -31 69 -63 83 -72 14 -8 39 -29 55 -45 116 -115 159 -148 192 -148
l33 0 0 434 c0 373 -2 435 -15 446 -8 7 -15 19 -15 27 0 7 7 16 15 19 12 5 15
33 15 166 l0 159 -27 -2 c-51 -4 -73 1 -73 16 0 10 16 16 50 21 l50 7 -2 401
-3 401 -48 -2 c-44 -1 -48 1 -45 20 2 12 -7 32 -18 44 -12 13 -29 44 -38 70
-45 124 -89 173 -176 197 -66 19 -87 40 -96 98 -4 24 -15 43 -30 53 -16 10
-24 25 -24 43 0 17 -13 42 -35 67 -19 22 -33 45 -31 50 1 6 16 14 32 19 16 5
43 15 61 23 18 7 43 11 57 7 13 -3 33 -1 44 5 27 14 213 41 289 41 l63 0 0
175 0 175 -1590 0 -1590 0 0 -720z m1738 -288 c7 -50 -70 -72 -90 -26 -10 22
-10 28 5 39 9 6 31 12 49 11 27 -1 34 -6 36 -24z m290 -47 c-2 -6 -9 -9 -15
-9 -7 1 -13 -5 -13 -13 0 -8 8 -13 18 -11 10 2 17 -3 17 -12 0 -9 -8 -14 -19
-13 -13 1 -15 -2 -7 -10 16 -16 14 -37 -4 -37 -15 0 -17 11 -19 75 0 17 -5 33
-11 37 -5 4 5 7 23 5 18 -1 31 -7 30 -12z m59 -37 c-3 -8 -6 -5 -6 6 -1 11 2
17 5 13 3 -3 4 -12 1 -19z m-434 -1 c6 -17 -90 -90 -109 -83 -22 8 -4 37 28
43 16 3 26 8 24 11 -3 2 -1 13 5 23 11 22 44 25 52 6z m-185 -154 c3 -17 10
-23 30 -24 15 0 21 -3 15 -6 -15 -6 -18 -83 -3 -83 6 0 10 -4 10 -10 0 -5 -11
-10 -24 -10 -14 0 -28 5 -31 10 -3 6 1 10 9 10 17 0 19 13 7 44 -7 18 -8 18
-24 -5 -9 -13 -17 -18 -17 -11 0 7 -15 12 -39 12 -39 0 -64 17 -59 41 11 53
119 80 126 32z m-893 -25 c6 -4 2 -8 -7 -8 -10 0 -18 7 -18 17 0 9 3 12 8 7 4
-5 12 -12 17 -16z m995 -48 c0 -5 -8 -10 -17 -10 -15 0 -16 2 -3 10 19 12 20
12 20 0z m524 -36 c-16 -13 -34 -24 -41 -24 -16 0 -37 40 -26 50 13 13 56 17
77 7 19 -9 18 -11 -10 -33z m-524 2 c0 -9 -30 -14 -35 -6 -4 6 3 10 14 10 12
0 21 -2 21 -4z m245 -36 c3 -5 15 -10 26 -10 11 0 22 -7 24 -15 3 -8 8 -23 12
-32 16 -44 14 -73 -4 -74 -10 -1 -35 -3 -56 -4 -33 -4 -39 -1 -49 23 -6 15
-15 38 -21 51 -10 19 -8 25 8 37 10 8 15 14 11 14 -4 0 -4 5 -1 10 3 6 15 10
25 10 10 0 22 -4 25 -10z m225 -25 c0 -3 -9 -14 -19 -24 -17 -17 -20 -17 -25
-4 -3 8 -4 19 0 24 5 9 44 13 44 4z m-38 -246 c2 -14 15 -25 38 -33 24 -8 36
-18 38 -33 2 -13 8 -23 13 -23 6 0 3 -7 -5 -16 -18 -18 -22 -39 -5 -28 7 4 7
-1 -1 -15 -9 -19 -17 -21 -43 -15 -43 9 -44 10 -68 55 -18 37 -19 42 -4 71 8
17 15 37 15 45 0 21 18 15 22 -8z m-448 -85 c9 -8 16 -22 16 -30 0 -8 7 -17
15 -20 19 -8 19 -24 0 -24 -8 0 -24 -5 -34 -12 -15 -9 -24 -7 -50 11 -38 27
-39 43 -5 70 32 25 38 26 58 5z m1501 -182 c-6 -7 -34 11 -29 19 3 5 11 3 19
-4 7 -6 12 -13 10 -15z m-237 5 c6 3 12 -1 12 -7 0 -8 -8 -10 -22 -6 -13 3
-29 6 -35 6 -7 0 -13 4 -13 10 0 6 9 6 23 1 12 -4 28 -6 35 -4z m-2218 -207
c0 -5 -7 -7 -15 -4 -8 4 -15 8 -15 10 0 2 7 4 15 4 8 0 15 -4 15 -10z m2557
-86 c8 -20 -21 -49 -41 -41 -13 5 -14 11 -4 32 13 28 36 33 45 9z"/>
<path d="M1351 2794 c0 -11 3 -14 6 -6 3 7 2 16 -1 19 -3 4 -6 -2 -5 -13z"/>
<path d="M507 2146 c-3 -8 -2 -18 3 -21 13 -8 24 15 12 27 -6 6 -11 4 -15 -6z"/>
<path d="M75 1350 c-3 -5 -2 -10 4 -10 5 0 13 5 16 10 3 6 2 10 -4 10 -5 0
-13 -4 -16 -10z"/>
</g>
</svg>
